<svg id="svg" version="1.1" xmlns="http://www.w3.org/2000/svg" style="display: block;" viewBox="0 0 1024 1024">
    <path d="M0 0 C0.33 0 0.66 0 1 0 C1.18006592 0.82854492 1.18006592 0.82854492 1.36376953 1.67382812 C9.24541602 37.47118394 24.65097703 67.66718005 55.5546875 88.7421875 C82.09902486 105.53909606 113.9362948 108.36793308 144.5 105.125 C145.62970215 105.00753418 145.62970215 105.00753418 146.78222656 104.88769531 C148.53314347 104.6712153 150.27017665 104.34682102 152 104 C152.33 103.34 152.66 102.68 153 102 C155.33124447 101.65235828 157.66505073 101.32181896 160 101 C173.40209149 96.68685474 184.96593352 89.69687415 196 81 C193.97513602 87.38220032 191.61907578 93.55588952 189.015625 99.72265625 C188.44760162 101.07827919 188.44760162 101.07827919 187.86810303 102.46128845 C187.06953295 104.36538244 186.2693985 106.26882101 185.46777344 108.17163086 C184.26411391 111.02899502 183.06521266 113.88831646 181.8671875 116.74804688 C177.33880305 127.54069648 172.7314696 138.29481057 168 149 C172.58009213 150.62566928 177.18272929 151.77369887 181.9296875 152.77734375 C183.52522017 153.12273824 185.12059055 153.46888302 186.71582031 153.81567383 C187.55487915 153.99756256 188.39393799 154.17945129 189.25842285 154.36685181 C240.93554896 165.63709418 300.22143883 179.26875621 346 207 C347.4652876 209.93057519 346.73694902 212.06387885 346.28515625 215.296875 C346.19490677 215.94435699 346.10465729 216.59183899 346.01167297 217.25894165 C345.70486446 219.42413634 345.3854142 221.58715065 345.0625 223.75 C344.9508551 224.50339661 344.83921021 225.25679321 344.72418213 226.03302002 C331.77796002 312.49601748 304.0752959 397.96257909 266.75 476.875 C266.37994843 477.65898163 266.00989685 478.44296326 265.62863159 479.2507019 C261.31737535 488.36071345 256.84261379 497.35857572 252.06793213 506.23544312 C249.7487967 510.5476127 247.56104038 514.90041973 245.4375 519.3125 C235.62021605 539.24759701 223.90636125 558.25448078 211.54492188 576.69140625 C210.24069984 578.64031958 208.9506855 580.59687807 207.671875 582.5625 C202.86228122 589.91374903 197.70422893 596.98811894 192.46191406 604.03369141 C190.99848002 606.00204441 189.54204317 607.97544073 188.0859375 609.94921875 C174.2468203 628.63603996 159.29494332 646.39606795 143.46289062 663.42382812 C141.89197608 665.11638892 140.32878229 666.81589906 138.765625 668.515625 C132.50633467 675.29868659 126.1390298 681.96077234 119.625 688.5 C118.98344971 689.14614258 118.34189941 689.79228516 117.6809082 690.45800781 C113.87227507 694.25435345 109.94464858 697.85560028 105.875 701.37011719 C103.255862 703.64685746 100.72692298 706.0096074 98.1875 708.375 C92.64374417 713.48907529 86.90627479 718.30690598 81 723 C80.48244141 723.41185547 79.96488281 723.82371094 79.43164062 724.24804688 C75.93811798 727.02366522 72.42719524 729.77614792 68.90527344 732.515625 C67.62517654 733.51293268 66.34720853 734.51297841 65.07128906 735.515625 C49.78173714 747.52288839 33.75703581 758.41638521 17.375 768.875 C16.58754395 769.3810376 15.80008789 769.8870752 14.98876953 770.40844727 C14.25770996 770.86920654 13.52665039 771.32996582 12.7734375 771.8046875 C12.13841309 772.20671387 11.50338867 772.60874023 10.84912109 773.02294922 C8.83664544 774.08631436 7.26417368 774.7224097 5 775 C3.16333008 774.29418945 3.16333008 774.29418945 1.26953125 773.11328125 C0.55764648 772.67556396 -0.15423828 772.23784668 -0.88769531 771.78686523 C-2.02609863 771.05705444 -2.02609863 771.05705444 -3.1875 770.3125 C-3.98124023 769.81500244 -4.77498047 769.31750488 -5.59277344 768.80493164 C-13.2627967 763.94395947 -20.67653403 758.7363759 -28.03320312 753.41699219 C-29.87325019 752.09131776 -31.72276778 750.7806904 -33.578125 749.4765625 C-47.003939 740.02347979 -60.01066658 730.07054988 -72.43945312 719.33837891 C-74.02712362 717.97673785 -75.62812959 716.63263141 -77.234375 715.29296875 C-83.98840866 709.65299209 -90.52520019 703.82868562 -96.95703125 697.82421875 C-99.5569217 695.39911085 -102.20715553 693.03784893 -104.875 690.6875 C-109.42060149 686.60849999 -113.78472732 682.35755092 -118.125 678.0625 C-119.13989502 677.06706177 -119.13989502 677.06706177 -120.17529297 676.05151367 C-120.80064941 675.42736572 -121.42600586 674.80321777 -122.0703125 674.16015625 C-122.63508301 673.59949463 -123.19985352 673.03883301 -123.78173828 672.46118164 C-125 671 -125 671 -125 669 C-125.99 668.67 -126.98 668.34 -128 668 C-129.47265625 666.5390625 -129.47265625 666.5390625 -131.0625 664.625 C-133.92860054 661.23998442 -136.86737252 657.94771206 -139.875 654.6875 C-143.96437787 650.20337072 -147.84619021 645.59732762 -151.65625 640.875 C-153.75016189 638.30646808 -155.88170686 635.77968393 -158.03662109 633.26269531 C-171.43744 617.59648876 -183.51488745 600.80542441 -195.4375 584 C-195.89688965 583.35514648 -196.3562793 582.71029297 -196.82958984 582.04589844 C-200.11430528 577.38593792 -203.19049573 572.60958554 -206.23461914 567.78955078 C-207.87923166 565.190831 -209.54431454 562.60691416 -211.21875 560.02734375 C-225.65535631 537.68997653 -238.64450815 514.544796 -251 491 C-251.46825195 490.11022461 -251.93650391 489.22044922 -252.41894531 488.30371094 C-274.12293798 446.77958784 -291.24725762 402.65765253 -305.35797119 358.02960205 C-305.97559318 356.07715562 -306.59755879 354.12613875 -307.22021484 352.17529297 C-321.61401562 306.77667897 -331.46306093 260.14286646 -338 213 C-289.15598668 175.40491096 -229.42540401 154.03729857 -170 140 C-170.34144043 139.1970752 -170.68288086 138.39415039 -171.03466797 137.56689453 C-177.96492706 121.23841473 -184.70336393 104.87600156 -190.9765625 88.28125 C-192.54708279 84.13613028 -194.21145822 80.05554697 -196 76 C-192.4957114 77.56382973 -189.75139426 79.68569756 -186.75 82.0625 C-176.91853778 89.56545801 -166.48781709 95.47545705 -154.75 99.4375 C-153.70658447 99.78977661 -153.70658447 99.78977661 -152.64208984 100.14916992 C-131.27725432 106.87329259 -106.4111647 106.11680603 -85 100 C-84.26394531 99.79101074 -83.52789062 99.58202148 -82.76953125 99.36669922 C-68.18996687 95.06056682 -54.50006453 88.00570586 -43 78 C-41.77216797 76.95199219 -41.77216797 76.95199219 -40.51953125 75.8828125 C-19.15084154 57.19733194 -9.32679795 33.89332426 -2 7 C-1.33924822 4.66493239 -0.66986994 2.33247506 0 0 Z M-32 106 C-28 107 -28 107 -28 107 Z M-71 174 C-71 174.33 -71 174.66 -71 175 C-69.35 175 -67.7 175 -66 175 C-66 174.67 -66 174.34 -66 174 C-67.65 174 -69.3 174 -71 174 Z M-27 107 C-24.09037576 108.57625585 -21.35366541 109.52224778 -18.140625 110.296875 C-17.19832031 110.52979248 -16.25601562 110.76270996 -15.28515625 111.00268555 C-13.78275391 111.3726062 -13.78275391 111.3726062 -12.25 111.75 C9.99855312 117.43823645 32.48377706 126.160696 51 140 C52.07889312 140.78458894 53.15834503 141.56840993 54.23828125 142.3515625 C62.21223633 148.19559344 62.21223633 148.19559344 65.21875 151.265625 C66.82446652 153.23253889 66.82446652 153.23253889 69 153 C69.33 153.99 69.66 154.98 70 156 C70.66 156 71.32 156 72 156 C72 156.66 72 157.32 72 158 C73.64178423 159.69118305 75.3134035 161.35350439 77 163 C91.75418924 179.91152447 100.53232484 200.13381753 105 222 C104.34 222 103.68 222 103 222 C103 221.34 103 220.68 103 220 C100.46454018 218.23966335 100.46454018 218.23966335 97.3125 216.5 C96.25675781 215.8915625 95.20101563 215.283125 94.11328125 214.65625 C91.43029027 213.22891226 88.83463866 212.07689569 86 211 C85.06929687 210.59523438 84.13859375 210.19046875 83.1796875 209.7734375 C74.6614044 206.16877397 65.98474572 203.34147328 57.125 200.6875 C55.97241699 200.33800293 54.81983398 199.98850586 53.63232422 199.62841797 C47.38466868 197.79236119 41.49779775 196.47595334 35 196 C36.65 199.3 38.3 202.6 40 206 C38.57429688 206.12117188 37.14859375 206.24234375 35.6796875 206.3671875 C25.064379 207.28904812 14.52534296 208.31163441 4 210 C4.50712033 206.28111761 5.11608215 203.26545761 7 200 C-9.08862219 191.83861993 -28.18790682 186.85599033 -46 192 C-53.46601417 194.96105809 -58.776033 199.55206601 -62.375 206.75 C-64.90616973 219.91208261 -60.96552077 230.57580056 -53.87890625 241.625 C-51.83614429 244.20711907 -49.59080321 245.98493083 -47 248 C-45.1875 250.75 -45.1875 250.75 -44 253 C-43.67 252.34 -43.34 251.68 -43 251 C-43.70985095 249.10107382 -44.49534735 247.2302818 -45.3125 245.375 C-49.17766057 235.59841738 -52.01186516 224.17241127 -48.109375 213.98828125 C-45.62984912 209.54434225 -42.47735779 207.59662526 -37.75 205.6875 C-27.76477691 203.85687577 -18.21787315 204.87803915 -9.56640625 210.61328125 C-6.31177433 213.30656381 -4.28512756 215.38222362 -2.5 219.25 C-0.69642297 222.55655789 1.06629184 223.35849242 4.609375 224.48046875 C8.21334177 225.26368375 11.80708386 225.56842503 15.484375 225.7890625 C17.76912081 225.98064057 19.80039077 226.37300858 22 227 C21.20078125 227.52207031 20.4015625 228.04414063 19.578125 228.58203125 C3.30520856 239.40900159 -14.36949466 253.83619297 -19.59765625 273.48046875 C-20.44955208 278.81515623 -19.91688052 283.75873651 -17.875 288.75 C-14.18090787 293.18291055 -9.61236281 296.57367334 -5 300 C-16.98532806 308.78924058 -31.01698628 315.11890918 -45 320 C-45.80920898 320.28278809 -46.61841797 320.56557617 -47.45214844 320.85693359 C-66.41053933 327.29333856 -85.97584219 331.14516714 -105.55932617 335.14331055 C-134.08795029 340.97556392 -163.0947851 347.35258812 -184 369 C-184.80953125 369.77859375 -185.6190625 370.5571875 -186.453125 371.359375 C-201.34637676 386.45525604 -207.12053684 408.72665334 -207.25 429.375 C-207.14813812 443.50728997 -204.62145288 456.4921201 -200.6015625 469.9765625 C-199.70943545 472.97735347 -198.8558474 475.98868507 -198 479 C-222.73701167 451.88757993 -237.06281974 419.12749391 -236.18359375 381.94140625 C-234.77917458 359.44081825 -227.63695517 339.61784612 -211 324 C-189.08033645 305.31137564 -160.06180205 303.74216715 -132.63671875 305.484375 C-123.85403804 305.99988092 -115.08314833 306.28403156 -106.28564453 306.35009766 C-104.67482131 306.36673772 -103.06407428 306.39413255 -101.45361328 306.43212891 C-79.07614268 306.95169465 -63.05908374 299.47904173 -46 285 C-52.00248519 278.99751481 -66.14295867 279.07290023 -74.3125 277.9375 C-75.5288916 277.76831055 -76.7452832 277.59912109 -77.99853516 277.42480469 C-106.21289631 273.60897317 -134.70364563 272.13975866 -163 276 C-163.77279297 276.09651855 -164.54558594 276.19303711 -165.34179688 276.29248047 C-204.89393286 281.27330156 -238.65465923 298.40804923 -268 325 C-268 306.08808387 -250.28022717 281.4217888 -239 267 C-238.24976563 266.03964844 -237.49953125 265.07929688 -236.7265625 264.08984375 C-223.0555136 247.03700906 -223.0555136 247.03700906 -217 243 C-217 242.34 -217 241.68 -217 241 C-216.44570313 240.76023437 -215.89140625 240.52046875 -215.3203125 240.2734375 C-212.47712373 238.71303424 -210.31061646 236.76917517 -207.875 234.625 C-190.91689616 220.15806775 -170.94426567 209.70502213 -151 200 C-150.34 199.67 -149.68 199.34 -149 199 C-124.24029774 188.52987779 -98.76177607 179.50974112 -72 176 C-72.33 175.34 -72.66 174.68 -73 174 C-139.84867924 157.25993007 -226.95903091 187.91443001 -288 214 C-289.0533252 214.44956055 -290.10665039 214.89912109 -291.19189453 215.36230469 C-294.0723166 216.60156139 -296.94488823 217.85641275 -299.8125 219.125 C-300.64362305 219.49141602 -301.47474609 219.85783203 -302.33105469 220.23535156 C-306.36474661 221.8118392 -306.36474661 221.8118392 -309 225 C-308.77341207 227.24164233 -308.45648464 229.47428444 -308.1015625 231.69921875 C-307.9918512 232.38853989 -307.88213989 233.07786102 -307.769104 233.78807068 C-307.39761017 236.08962646 -307.01314346 238.38869549 -306.625 240.6875 C-306.49095764 241.48597351 -306.35691528 242.28444702 -306.21881104 243.1071167 C-293.02700061 320.97562958 -266.68903973 397.05196222 -209 509 C-208.44296387 509.91152832 -207.88592773 510.82305664 -207.31201172 511.76220703 C-198.92039918 525.44285958 -190.25224363 538.88530729 -181 552 C-180.47196777 552.74942871 -179.94393555 553.49885742 -179.39990234 554.27099609 C-164.47019988 575.37944507 -148.56108934 596.00407921 -131 615 C-129.67443282 616.44878332 -128.34888646 617.89758583 -127.02392578 619.34692383 C-125.61614401 620.88467359 -124.20474379 622.41904151 -122.79296875 623.953125 C-121.01210209 625.89053113 -119.24672724 627.83879206 -117.48828125 629.796875 C-111.76573094 636.14163216 -105.84421476 642.26045985 -99.8125 648.3125 C-99.06411865 649.06547363 -98.3157373 649.81844727 -97.54467773 650.59423828 C-93.44359817 654.68400515 -89.25260798 658.60090086 -84.86450195 662.38061523 C-82.07100544 664.80686407 -79.3859375 667.34425719 -76.6875 669.875 C-71.95116861 674.27653589 -67.11243648 678.48023653 -62.06640625 682.52734375 C-59.69958111 684.43587918 -57.35813073 686.36462694 -55.02734375 688.31640625 C-46.85725062 695.14530762 -38.59485819 701.65608454 -29.83935547 707.71533203 C-27.83842761 709.11284762 -25.85790574 710.53645854 -23.87890625 711.96484375 C-20.3187264 714.5294041 -16.73211563 717.0513509 -13.11816406 719.53955078 C-11.71126939 720.50958812 -10.30949768 721.48709979 -8.91308594 722.47216797 C-1.92641337 727.78245905 -1.92641337 727.78245905 6.21875 729.9765625 C8.470074 728.93675608 10.08995003 727.58643192 12 726 C13.56955743 725.00560942 15.1401716 724.01268744 16.72314453 723.03979492 C45.22505282 705.35827308 72.08879109 684.56519637 96.81640625 661.9375 C98.41515147 660.51893537 100.07985321 659.17378319 101.77734375 657.875 C102.51082031 657.25625 103.24429687 656.6375 104 656 C104 655.34 104 654.68 104 654 C104.56847656 653.75894531 105.13695312 653.51789062 105.72265625 653.26953125 C108.44788908 651.75031912 110.26690339 649.92581019 112.4375 647.6875 C113.54931641 646.54861328 113.54931641 646.54861328 114.68359375 645.38671875 C115.44800781 644.59910156 116.21242188 643.81148437 117 643 C119.37653495 640.61061892 121.7648315 638.23335849 124.15698242 635.85961914 C126.73171169 633.3043083 129.3033811 630.74594076 131.875 628.1875 C132.74769531 627.32318359 133.62039063 626.45886719 134.51953125 625.56835938 C139.56221445 620.54463363 144.39913198 615.43073868 149 610 C149.44875488 609.47817139 149.89750977 608.95634277 150.35986328 608.41870117 C162.14171613 594.70936069 173.51551345 580.72961111 184 566 C184.53737793 565.24734863 185.07475586 564.49469727 185.62841797 563.71923828 C197.81077161 546.61528329 209.44589168 529.15985015 220 511 C220.44134277 510.24203125 220.88268555 509.4840625 221.33740234 508.703125 C265.53387262 432.58277303 299.91729107 351.27469459 324 234 C324.31130859 232.2684668 324.31130859 232.2684668 324.62890625 230.50195312 C324.90541016 228.91543945 324.90541016 228.91543945 325.1875 227.296875 C325.42533203 225.93320801 325.42533203 225.93320801 325.66796875 224.54199219 C326.00042168 221.99677166 326.06002239 219.56364874 326 217 C317.22851227 212.13618281 307.94430406 208.95171741 298.5 205.6875 C297.67887726 205.40176117 296.85775452 205.11602234 296.01174927 204.82162476 C281.7742697 199.86960053 267.48238331 195.18959837 253 191 C251.77909668 190.64437988 250.55819336 190.28875977 249.30029297 189.92236328 C223.99659559 182.57994346 198.43359431 176.24357804 172.86328125 169.90625 C171.79903427 169.64208282 170.73478729 169.37791565 169.63829041 169.10574341 C167.6650882 168.61864546 165.69087407 168.13562116 163.71548462 167.6574707 C161.94303789 167.22832749 160.17283495 166.78977685 158.40536499 166.34057617 C157.61441437 166.14761963 156.82346375 165.95466309 156.00854492 165.75585938 C154.98575691 165.49935608 154.98575691 165.49935608 153.94230652 165.2376709 C151.7170451 164.96537614 150.12545613 165.33514728 148 166 C149.00861084 166.30591064 150.01722168 166.61182129 151.05639648 166.92700195 C174.15558873 173.94246651 197.16979448 181.14958749 220 189 C221.19061035 189.40927734 222.3812207 189.81855469 223.60791016 190.24023438 C249.13635733 199.07331179 274.28352643 208.95463983 299.08251953 219.66186523 C300.56727783 220.30103882 300.56727783 220.30103882 302.08203125 220.953125 C302.94030518 221.32598633 303.7985791 221.69884766 304.68286133 222.08300781 C306.78083276 222.91326602 308.79959497 223.51631079 311 224 C300.72926504 287.17853412 279.81878604 348.64534652 255.04052734 407.45751953 C254.29484518 409.27955943 253.62256496 411.13230512 253 413 C247.10684503 426.39545727 240.87940314 439.68036717 234.18017578 452.69287109 C232.76971482 455.45018514 231.38443413 458.21976466 229.99609375 460.98828125 C221.99474168 476.81395402 213.22614222 491.97361506 203.85498047 507.01708984 C202.28567135 509.54062482 200.73279962 512.07265563 199.19140625 514.61328125 C182.37526191 542.19848442 162.37919227 567.81500448 141.41650391 592.34082031 C139.88204826 594.13815926 138.35308616 595.94009341 136.82421875 597.7421875 C135.75801937 598.99496775 134.6916177 600.24757588 133.625 601.5 C133.13700928 602.07572754 132.64901855 602.65145508 132.14624023 603.24462891 C129.89350167 605.88128215 127.63654123 608.35449677 125.1484375 610.78125 C122.76812264 612.72472139 122.76812264 612.72472139 123 615 C122.34 615 121.68 615 121 615 C119.6358772 616.34937337 119.6358772 616.34937337 118.1875 618.1875 C111.14078923 626.47254488 103.29531185 634.24361058 95 641.27734375 C92.56610869 643.37372279 90.22865575 645.5639738 87.875 647.75 C82.51609108 652.64616191 76.87886296 657.10283507 71.140625 661.54296875 C68.85500876 663.33109389 66.6575682 665.12831638 64.5 667.0625 C52.22435991 677.7920897 37.66635094 686.51199563 23.77099609 694.91308594 C21.83875396 696.09896159 19.92933717 697.31741273 18.01953125 698.5390625 C16.67982663 699.3804299 15.33998543 700.22157988 14 701.0625 C13.37697998 701.46911865 12.75395996 701.8757373 12.11206055 702.29467773 C9.48725639 703.92169309 7.59086739 705.00909027 4.4609375 704.9609375 C-23.20210794 694.1591769 -52.41372655 669.8618403 -72.546875 648.328125 C-73.91794291 646.77511811 -73.91794291 646.77511811 -76 647 C-76.21527344 646.45472656 -76.43054688 645.90945313 -76.65234375 645.34765625 C-78.46137042 642.19627935 -80.95715983 639.92153973 -83.5625 637.4375 C-88.24401819 632.85989156 -92.53573353 628.15205099 -96.60546875 623.01171875 C-98.36968682 620.79277563 -100.15623726 618.61839251 -101.98828125 616.45703125 C-115.02274518 600.97316442 -125.67005927 583.93794705 -135 566 C-135.32693848 565.37351562 -135.65387695 564.74703125 -135.99072266 564.1015625 C-151.54389715 533.82363326 -159.3743229 497.29475907 -148.78125 464.19140625 C-141.75187318 444.41435037 -128.91285437 429.51649506 -109.9375 420.3125 C-94.77448883 413.41896995 -78.3150685 411.96407195 -61.9375 410.25 C-59.89507702 410.0283115 -57.85275824 409.80566082 -55.81054688 409.58203125 C-50.87482479 409.0436251 -45.93789019 408.51812825 -41 408 C-41 407.34 -41 406.68 -41 406 C-40.04351562 406.19980469 -39.08703125 406.39960937 -38.1015625 406.60546875 C-33.32592938 407.28067755 -29.04325956 406.32749415 -24.375 405.3125 C-23.50069336 405.13041992 -22.62638672 404.94833984 -21.72558594 404.76074219 C-14.67513604 403.24900541 -7.82377977 401.34100474 -1 399 C-1.33 398.01 -1.66 397.02 -2 396 C-3.80249248 395.08693292 -3.80249248 395.08693292 -6.06640625 394.53515625 C-6.93152832 394.2942627 -7.79665039 394.05336914 -8.68798828 393.80517578 C-9.63657715 393.56009277 -10.58516602 393.31500977 -11.5625 393.0625 C-12.54976074 392.80452637 -13.53702148 392.54655273 -14.55419922 392.28076172 C-49.12059198 383.52612135 -85.26917741 381.39592618 -117.375 399.3125 C-149.00366528 419.11901424 -170.19916091 451.29342543 -180 487 C-180.64919506 484.14656123 -181.29444179 481.29232245 -181.9375 478.4375 C-182.21110352 477.23770508 -182.21110352 477.23770508 -182.49023438 476.01367188 C-182.75610352 474.8293457 -182.75610352 474.8293457 -183.02734375 473.62109375 C-183.18968506 472.9036499 -183.35202637 472.18620605 -183.51928711 471.44702148 C-188.89045518 444.10562097 -185.49955884 414.98592243 -171.08203125 391.01953125 C-167.26900352 385.48956795 -162.7365743 380.74347893 -158 376 C-157.34257812 375.33097656 -156.68515625 374.66195313 -156.0078125 373.97265625 C-150.19716198 368.47373591 -143.14147155 364.52202444 -136 361 C-135.12061768 360.56437744 -134.24123535 360.12875488 -133.33520508 359.67993164 C-121.35777686 354.15423151 -108.62387092 351.02898632 -95.9375 347.5625 C-66.1912805 339.55275947 -66.1912805 339.55275947 -37.375 328.75 C-36.5185791 328.37705811 -35.6621582 328.00411621 -34.77978516 327.61987305 C-14.29944506 318.46832141 4.89633152 305.64829482 21 290 C21 291.86603261 20.96615023 293.73197992 20.9296875 295.59765625 C20.72577496 309.09697046 21.53349361 319.18562073 30.64453125 329.94140625 C40.53081606 339.5692261 55.31123654 343.35047191 68.29272461 346.80053711 C70.72735681 347.44810112 73.15573768 348.1160347 75.58398438 348.78710938 C77.14291248 349.21210086 78.70214635 349.63597273 80.26171875 350.05859375 C80.98147385 350.25537216 81.70122894 350.45215057 82.4427948 350.65489197 C85.7872592 351.53881531 88.50901379 352 92 352 C91.54109375 352.53367187 91.0821875 353.06734375 90.609375 353.6171875 C83.33029831 362.45606634 78.90043533 372.33239712 80 384 C81.84900569 393.85614051 86.60306371 400.95764221 94.80859375 406.6875 C110.88969173 416.31895975 129.42689555 415.10125084 147 411 C164.70721835 406.22149262 185.18105078 397.36232817 194.9140625 381.046875 C198.24324066 374.77173344 198.33951571 369.88233931 197 363 C195.5877761 358.76332831 193.30610809 357.44007985 189.5 355.4375 C185.83419134 353.72500545 182.12638498 352.28419594 178.3125 350.9375 C168.67413653 347.4894094 163.64432864 343.28865729 159 334 C158.86584528 331.3276379 158.95681459 328.67749512 159 326 C161.234375 325.28515625 161.234375 325.28515625 164 325 C166.140625 326.43359375 166.140625 326.43359375 168.25 328.4375 C171.38850232 331.04599034 173.36680287 332.51914479 177.5 332.5625 C180.47215716 332.26020629 183.27466878 331.72024822 186.16796875 330.98828125 C191.07528521 329.87977063 195.79256546 329.61721036 200.8125 329.625 C201.68253662 329.62371094 202.55257324 329.62242187 203.44897461 329.62109375 C209.68804867 329.72306023 214.97760422 330.72532283 220.78515625 333.125 C223.06812278 334.18371397 223.06812278 334.18371397 226 334 C225.39762798 326.2632844 222.34822078 323.38601964 216.68261719 318.42285156 C202.98719369 306.84175345 188.04208309 295.84833798 172.578125 286.765625 C171.26884033 285.98650757 171.26884033 285.98650757 169.93310547 285.19165039 C168.27529825 284.21686987 166.60288569 283.26635371 164.91455078 282.34545898 C159.44957687 279.12900214 159.44957687 279.12900214 158.13232422 275.82104492 C157.8082533 274.2655367 157.53465829 272.6985349 157.31591797 271.12475586 C156.90389835 268.35365331 155.81289143 266.32137263 154.375 263.9375 C153.92898438 263.18339844 153.48296875 262.42929687 153.0234375 261.65234375 C152.68570312 261.10707031 152.34796875 260.56179688 152 260 C152.75925781 260.433125 153.51851562 260.86625 154.30078125 261.3125 C155.29464844 261.869375 156.28851562 262.42625 157.3125 263 C158.29863281 263.556875 159.28476562 264.11375 160.30078125 264.6875 C162.94942471 266.21864753 162.94942471 266.21864753 166 266 C167.42781868 263.94429776 167.42781868 263.94429776 168 261 C164.53433416 249.64031752 152.3686086 243.11314666 143 236.8125 C141.84624878 236.02431885 141.84624878 236.02431885 140.66918945 235.22021484 C137.22974527 232.92043139 134.17655121 231.06664762 130.28515625 229.59765625 C126.43962414 228.13868467 124.5775319 227.24914233 122 224 C120.26355725 217.68610122 120.00633358 211.11443685 119.546875 204.609375 C118.20343433 185.70447788 109.82198148 167.83311089 97 154 C96.25234375 153.16082031 95.5046875 152.32164062 94.734375 151.45703125 C83.96711235 139.95887826 70.22247384 132.42253241 56 126 C55.27280762 125.66758301 54.54561523 125.33516602 53.79638672 124.99267578 C29.39988264 114.02553633 -0.12225935 106.30223934 -27 107 Z M216.0703125 354.8046875 C208.02017816 363.34086769 206.5069837 374.79217041 206.7421875 386.04296875 C207.22274154 393.41874517 209.43441951 399.5479972 213 406 C214.94124558 403.08813163 215.4865384 401.50183896 216.18359375 398.16015625 C216.48970581 396.70331421 216.48970581 396.70331421 216.80200195 395.21704102 C217.01171631 394.17604248 217.22143066 393.13504395 217.4375 392.0625 C217.65559326 390.99378662 217.87368652 389.92507324 218.09838867 388.82397461 C219.47992678 381.92549093 220.73963603 375.01575339 221.8125 368.0625 C221.93616943 367.27818604 222.05983887 366.49387207 222.18725586 365.68579102 C222.95729139 360.41209435 223.10055199 355.32925555 223 350 C220.44888838 350 217.86139831 353.21903088 216.0703125 354.8046875 Z M163.0625 419.3125 C161.96365479 419.82941406 160.86480957 420.34632813 159.73266602 420.87890625 C156.14803294 422.57136281 152.5723525 424.28183517 149 426 C148.3649353 426.30516541 147.72987061 426.61033081 147.07556152 426.92474365 C141.30611378 429.69817722 135.53841129 432.47517839 129.78344727 435.27856445 C123.56784644 438.30186274 117.33737223 441.24050388 111 444 C111.94417821 448.22572686 113.3869212 449.90873541 116.73828125 452.62109375 C121.10791287 455.28513514 126.04387297 455.96985812 131 457 C155.40125356 462.78324929 155.40125356 462.78324929 162 473 C164.55721267 477.49118506 165.79232175 481.82678168 166.6875 486.875 C166.81705078 487.56335938 166.94660156 488.25171875 167.08007812 488.9609375 C167.39474121 490.63914062 167.69851465 492.31937953 168 494 C174.62042165 492.9691385 178.91524553 489.76841889 182.9296875 484.4375 C184.71926391 481.67248924 186.38038645 478.86737706 188 476 C188.4021875 475.35289062 188.804375 474.70578125 189.21875 474.0390625 C192.92121967 467.61583861 193.69868405 460.19453661 195 453 C195.31727632 451.66275484 195.64149923 450.32678788 196 449 C197.33418593 458.38695104 198.32417212 467.49095101 198 477 C205.02691938 470.4066565 208.38682216 461.78765282 208.96582031 452.21191406 C209.0405368 447.37668984 208.68479137 442.56818978 208.3125 437.75 C208.23507568 436.73212402 208.15765137 435.71424805 208.07788086 434.66552734 C207.12464701 423.22197108 207.12464701 423.22197108 201 414 C189.47441985 406.3162799 174.12116997 414.00503311 163.0625 419.3125 Z M15 421 C16.98 421.99 16.98 421.99 19 423 C19.99 422.34 20.98 421.68 22 421 C19.69 421 17.38 421 15 421 Z M-0.07421875 422.953125 C-0.83188034 423.05316833 -1.58954193 423.15321167 -2.37016296 423.25628662 C-4.81016905 423.58125685 -7.24892142 423.91449428 -9.6875 424.25 C-10.93445648 424.42039795 -10.93445648 424.42039795 -12.206604 424.59423828 C-54.9640979 430.05464555 -54.9640979 430.05464555 -89.23828125 454.4609375 C-102.51996738 473.6030572 -104.554834 495.64094411 -100.61181641 518.16918945 C-97.18119012 535.7946138 -92.09409305 553.38614619 -83.4453125 569.1953125 C-82 572 -82 572 -81.125 574.75 C-73.35183999 597.20579558 -56.84995575 618.68067406 -42 637 C-41.30261719 637.88816406 -40.60523438 638.77632812 -39.88671875 639.69140625 C-31.34027265 650.42524257 -21.91720869 660.46726773 -11.875 669.8125 C-11.34293945 670.30999756 -10.81087891 670.80749512 -10.26269531 671.32006836 C-7.66771866 673.68713039 -5.26076982 675.65044694 -2 677 C-3.67016673 671.40002921 -5.78535239 666.20102336 -8.3125 660.9375 C-30.53113628 614.05102124 -33.27059706 559.38230737 -16.53564453 510.28295898 C-11.82351574 497.25203748 -5.64530663 484.86205192 3 474 C3 473.34 3 472.68 3 472 C-15.03318544 474.63812132 -35.16155928 487.37915997 -48 500 C-48 500.66 -48 501.32 -48 502 C-48.99 502.33 -49.98 502.66 -51 503 C-52.67083945 504.86077502 -54.18612761 506.69718153 -55.6875 508.6875 C-56.12521729 509.2640332 -56.56293457 509.84056641 -57.01391602 510.43457031 C-63.51051238 519.1815754 -69.08445011 528.43113164 -72 539 C-75.12962712 535.87037288 -74.12119521 526.51811797 -74.1875 522.3125 C-73.89752688 495.28700493 -63.26187653 474.72238985 -44.79296875 455.73046875 C-27.87942306 439.82106677 -5.430718 431.68757219 16 424 C15.505 423.01 15.505 423.01 15 422 C9.89567637 421.89848765 4.98705991 422.26385321 -0.07421875 422.953125 Z M58 491 C55.60243122 492.0639022 53.35725852 493.18086666 51.0625 494.4375 C50.38807861 494.80367432 49.71365723 495.16984863 49.01879883 495.54711914 C38.95171874 501.12587476 30.3605281 508.12880047 22 516 C21.31164062 516.61230469 20.62328125 517.22460938 19.9140625 517.85546875 C0.00639052 536.3074414 -8.15152348 566.07516637 -9.28515625 592.390625 C-9.97335498 619.79856813 -3.3824475 644.84253106 7 670 C16.10841529 664.69319025 24.05580924 658.26488278 32.13867188 651.54101562 C34.65401711 649.45853148 37.20439444 647.42031314 39.75 645.375 C44.66701795 641.3526575 49.3338579 637.10160928 53.98046875 632.7734375 C56.16668574 630.74096756 58.40835058 628.78890222 60.67578125 626.84765625 C66.03619445 622.17790311 70.99849658 617.10944046 76 612.0625 C76.97502386 611.0824469 77.9502828 610.1026276 78.92578125 609.12304688 C81.28616618 606.75097687 83.64416905 604.3765914 86 602 C84.34998224 598.69996447 80.7225728 597.82596861 77.5 596.3125 C62.68191243 589.09817269 51.785767 579.19590147 46.06640625 563.42578125 C39.74944808 543.68906507 43.7243605 522.11894092 53.05615234 503.94287109 C55.24945953 499.88664951 57.58286773 495.92630622 60 492 C59.01 491.505 59.01 491.505 58 491 Z " transform="translate(513,170)" style="fill: #FE9D05;"/>
    <path d="M0 0 C5.11142216 5.11142216 7.99382808 10.46047065 8.29296875 17.76171875 C8.02259326 24.9416901 5.96698346 29.82733164 1.1875 35.1875 C-4.32566952 39.76225769 -10.51465612 41.71287337 -17.703125 41.50390625 C-24.28628752 40.51643187 -30.27262451 36.93853249 -34.8125 32.1875 C-38.63300706 26.18894686 -39.88396658 20.212786 -38.8125 13.1875 C-37.00160735 6.54398852 -33.70246331 1.79785079 -27.8125 -1.8125 C-18.23659235 -6.28690641 -8.90234798 -5.7370687 0 0 Z " transform="translate(528.8125,112.8125)" style="fill: #FD9D06;"/>
    <path d="M0 0 C5.00260521 4.34763658 7.84881389 9.47661202 9 16 C9.37961281 22.75250662 7.23596914 27.81263672 3 33 C-2.30137469 38.35574776 -7.42476128 40.85682539 -15 41 C-22.36157225 40.47417341 -27.7601984 38.2398016 -33 33 C-37.18022176 28.04431681 -38.22515871 22.38275987 -38 16 C-36.88103946 8.88576667 -33.26911435 3.78498632 -28 -1 C-18.98236065 -6.70503714 -8.66747375 -5.9039314 0 0 Z " transform="translate(315,195)" style="fill: #FD9D07;"/>
    <path d="M0 0 C5.84828533 3.38349074 11.06394569 8.41282487 13.0390625 14.9921875 C14.31343123 21.70212895 13.44336737 28.4164448 9.6015625 34.1171875 C4.00495185 39.87162014 -0.8488193 43.36773021 -9.0859375 43.5546875 C-16.12719396 43.41594353 -21.98184252 41.50162629 -27.05859375 36.47265625 C-31.15313646 31.18436931 -32.67969101 25.71697138 -32.2109375 19.0546875 C-31.66723837 14.88211277 -30.66059672 11.71988552 -28.3984375 8.1171875 C-27.8621875 7.2509375 -27.3259375 6.3846875 -26.7734375 5.4921875 C-19.89932019 -1.38192981 -9.14518858 -3.36614433 0 0 Z " transform="translate(740.3984375,189.8828125)" style="fill: #FD9E07;"/>
    <path d="M0 0 C0.80695312 0.23203125 1.61390625 0.4640625 2.4453125 0.703125 C7.6066125 2.92696487 10.35970495 6.12249494 13.0625 10.9375 C17.73361825 18.54329907 23.89522302 24.07079468 31.5 28.6875 C32.61375 29.368125 33.7275 30.04875 34.875 30.75 C34.875 31.41 34.875 32.07 34.875 32.75 C31.905 34.4 28.935 36.05 25.875 37.75 C24.7921875 36.63625 24.7921875 36.63625 23.6875 35.5 C17.93205188 29.87245073 12.20149009 25.16869259 4 24.375 C0.85611726 24.51008871 -1.96155025 25.2119021 -5 26 C-14.10600213 27.9349911 -22.77130376 21.48569565 -30.4375 17.125 C-32.16125734 16.15098098 -33.88647327 15.17953784 -35.61328125 14.2109375 C-36.36134033 13.78603027 -37.10939941 13.36112305 -37.88012695 12.92333984 C-40.24225283 11.68871483 -42.63614891 10.69951655 -45.125 9.75 C-36.64708063 -0.1697424 -11.74476949 -3.54986602 0 0 Z " transform="translate(610.125,432.25)" style="fill: #FE9E05;"/>
    <path d="M0 0 C1.65 0 3.3 0 5 0 C5 0.33 5 0.66 5 1 C3.35 1 1.7 1 0 1 C0 0.67 0 0.34 0 0 Z " transform="translate(466,558)" style="fill: #FFB700;"/>
    <path d="M0 0 C4 1 4 1 4 1 Z " transform="translate(408,272)" style="fill: #FFBA00;"/>
    <path d="M0 0 C3 1 3 1 3 1 Z " transform="translate(505,568)" style="fill: #FFAA00;"/>
    <path d="M0 0 C3 1 3 1 3 1 Z " transform="translate(376,528)" style="fill: #FFB800;"/>
    <path d="M0 0 C3 1 3 1 3 1 Z " transform="translate(384,445)" style="fill: #FF8E00;"/>
    <path d="M0 0 C3 1 3 1 3 1 Z " transform="translate(328,312)" style="fill: #FF9600;"/>
    <path d="M0 0 C3 1 3 1 3 1 Z " transform="translate(440,264)" style="fill: #FFB800;"/>
    <path d="" transform="translate(0,0)" style="fill: #FFFF00;"/>
    <path d="" transform="translate(0,0)" style="fill: #FFFF00;"/>
    <path d="M0 0 C2 1 2 1 2 1 Z " transform="translate(595,771)" style="fill: #FFBF00;"/>
    <path d="" transform="translate(0,0)" style="fill: #FFBF00;"/>
    <path d="" transform="translate(0,0)" style="fill: #FFFF00;"/>
    <path d="" transform="translate(0,0)" style="fill: #FFFF00;"/>
    <path d="" transform="translate(0,0)" style="fill: #FFFF00;"/>
    <path d="" transform="translate(0,0)" style="fill: #FFBF00;"/>
    <path d="" transform="translate(0,0)" style="fill: #FFFF00;"/>
    <path d="" transform="translate(0,0)" style="fill: #FFFF00;"/>
    <path d="" transform="translate(0,0)" style="fill: #FFFF00;"/>
    <path d="M0 0 C2 1 2 1 2 1 Z " transform="translate(735,498)" style="fill: #FFFF00;"/>
    <path d="" transform="translate(0,0)" style="fill: #FFD400;"/>
    <path d="M0 0 C2 1 2 1 2 1 Z " transform="translate(504,480)" style="fill: #FFD400;"/>
    <path d="M0 0 C2 1 2 1 2 1 Z " transform="translate(320,480)" style="fill: #FFD400;"/>
    <path d="M0 0 C2 1 2 1 2 1 Z " transform="translate(434,472)" style="fill: #FFD400;"/>
    <path d="M0 0 C2 1 2 1 2 1 Z " transform="translate(278,471)" style="fill: #FF8000;"/>
    <path d="" transform="translate(0,0)" style="fill: #FFFF00;"/>
    <path d="" transform="translate(0,0)" style="fill: #FFFF00;"/>
    <path d="M0 0 C2 1 2 1 2 1 Z " transform="translate(297,408)" style="fill: #FFFF00;"/>
    <path d="" transform="translate(0,0)" style="fill: #FFFF00;"/>
    <path d="" transform="translate(0,0)" style="fill: #FFFF00;"/>
    <path d="" transform="translate(0,0)" style="fill: #FFB400;"/>
    <path d="M0 0 C2 1 2 1 2 1 Z " transform="translate(344,376)" style="fill: #FF8000;"/>
    <path d="" transform="translate(0,0)" style="fill: #FFFF00;"/>
    <path d="M0 0 C2 1 2 1 2 1 Z " transform="translate(738,355)" style="fill: #FFBF00;"/>
    <path d="M0 0 C2 1 2 1 2 1 Z " transform="translate(522,283)" style="fill: #FFFF00;"/>
    <path d="M0 0 C2 1 2 1 2 1 Z " transform="translate(456,256)" style="fill: #FFD400;"/>
    <path d="" transform="translate(0,0)" style="fill: #FFFF00;"/>
    <path d="" transform="translate(0,0)" style="fill: #000000;"/>
    <path d="" transform="translate(0,0)" style="fill: #FFFF00;"/>
    <path d="" transform="translate(0,0)" style="fill: #FFFF00;"/>
    <path d="" transform="translate(0,0)" style="fill: #FF8000;"/>
    <path d="" transform="translate(0,0)" style="fill: #FFFF00;"/>
    <path d="" transform="translate(0,0)" style="fill: #FFFF00;"/>
    <path d="" transform="translate(0,0)" style="fill: #FFFF00;"/>
    <path d="" transform="translate(0,0)" style="fill: #FFFF00;"/>
    <path d="" transform="translate(0,0)" style="fill: #FF9900;"/>
    <path d="" transform="translate(0,0)" style="fill: #FF8000;"/>
    <path d="" transform="translate(0,0)" style="fill: #FFFF00;"/>
    <path d="" transform="translate(0,0)" style="fill: #FFFF00;"/>
    <path d="" transform="translate(0,0)" style="fill: #FFFF00;"/>
    <path d="" transform="translate(0,0)" style="fill: #FFFF00;"/>
    <path d="" transform="translate(0,0)" style="fill: #FFFF00;"/>
    <path d="" transform="translate(0,0)" style="fill: #FF8000;"/>
    <path d="" transform="translate(0,0)" style="fill: #FF9900;"/>
    <path d="" transform="translate(0,0)" style="fill: #FF8000;"/>
    <path d="" transform="translate(0,0)" style="fill: #FFFF00;"/>
    <path d="" transform="translate(0,0)" style="fill: #FF8000;"/>
    <path d="" transform="translate(0,0)" style="fill: #FF9900;"/>
    <path d="" transform="translate(0,0)" style="fill: #FF8000;"/>
    <path d="" transform="translate(0,0)" style="fill: #FFAA00;"/>
    <path d="" transform="translate(0,0)" style="fill: #FFFF00;"/>
    <path d="" transform="translate(0,0)" style="fill: #FFFF00;"/>
    <path d="" transform="translate(0,0)" style="fill: #FFFF00;"/>
    <path d="" transform="translate(0,0)" style="fill: #FFAA00;"/>
    <path d="" transform="translate(0,0)" style="fill: #FFFF00;"/>
    <path d="" transform="translate(0,0)" style="fill: #FFFF00;"/>
    <path d="" transform="translate(0,0)" style="fill: #FF8000;"/>
    <path d="" transform="translate(0,0)" style="fill: #FFFF00;"/>
    <path d="" transform="translate(0,0)" style="fill: #FFFF00;"/>
    <path d="" transform="translate(0,0)" style="fill: #FF8000;"/>
    <path d="" transform="translate(0,0)" style="fill: #FF8000;"/>
    <path d="" transform="translate(0,0)" style="fill: #FFFF00;"/>
    <path d="" transform="translate(0,0)" style="fill: #FF8000;"/>
    <path d="" transform="translate(0,0)" style="fill: #FFFF00;"/>
    <path d="" transform="translate(0,0)" style="fill: #FFFF00;"/>
    <path d="" transform="translate(0,0)" style="fill: #FF8000;"/>
    <path d="" transform="translate(0,0)" style="fill: #FF8000;"/>
    <path d="" transform="translate(0,0)" style="fill: #FFFF00;"/>
    <path d="" transform="translate(0,0)" style="fill: #FF8000;"/>
    <path d="" transform="translate(0,0)" style="fill: #FFFF00;"/>
    <path d="" transform="translate(0,0)" style="fill: #FFFF00;"/>
    <path d="" transform="translate(0,0)" style="fill: #FFFF00;"/>
    <path d="" transform="translate(0,0)" style="fill: #FFFF00;"/>
    <path d="" transform="translate(0,0)" style="fill: #FFFF00;"/>
    <path d="" transform="translate(0,0)" style="fill: #FFFF00;"/>
    <path d="" transform="translate(0,0)" style="fill: #FFFF00;"/>
    <path d="" transform="translate(0,0)" style="fill: #FFFF00;"/>
    <path d="" transform="translate(0,0)" style="fill: #FFFF00;"/>
    <path d="" transform="translate(0,0)" style="fill: #FF8000;"/>
    <path d="" transform="translate(0,0)" style="fill: #FF8000;"/>
    <path d="" transform="translate(0,0)" style="fill: #FFFF00;"/>
    <path d="" transform="translate(0,0)" style="fill: #FF8000;"/>
    <path d="" transform="translate(0,0)" style="fill: #FFFF00;"/>
    <path d="" transform="translate(0,0)" style="fill: #FFFF00;"/>
    <path d="" transform="translate(0,0)" style="fill: #FFFF00;"/>
    <path d="" transform="translate(0,0)" style="fill: #FFFF00;"/>
    <path d="" transform="translate(0,0)" style="fill: #FF8000;"/>
    <path d="" transform="translate(0,0)" style="fill: #FFFF00;"/>
    <path d="" transform="translate(0,0)" style="fill: #FFFF00;"/>
    <path d="" transform="translate(0,0)" style="fill: #FFFF00;"/>
    <path d="" transform="translate(0,0)" style="fill: #FFFF00;"/>
    <path d="" transform="translate(0,0)" style="fill: #FF8000;"/>
    <path d="" transform="translate(0,0)" style="fill: #FFFF00;"/>
    <path d="" transform="translate(0,0)" style="fill: #FFFF00;"/>
    <path d="" transform="translate(0,0)" style="fill: #FFFF00;"/>
    <path d="" transform="translate(0,0)" style="fill: #FFFF00;"/>
    <path d="" transform="translate(0,0)" style="fill: #FF8000;"/>
    <path d="" transform="translate(0,0)" style="fill: #FF8000;"/>
    <path d="" transform="translate(0,0)" style="fill: #FFFF00;"/>
    <path d="" transform="translate(0,0)" style="fill: #FFFF00;"/>
    <path d="" transform="translate(0,0)" style="fill: #FFFF00;"/>
    <path d="" transform="translate(0,0)" style="fill: #FF8000;"/>
    <path d="" transform="translate(0,0)" style="fill: #FF8000;"/>
    <path d="" transform="translate(0,0)" style="fill: #FFFF00;"/>
    <path d="" transform="translate(0,0)" style="fill: #FF8000;"/>
    <path d="" transform="translate(0,0)" style="fill: #FFFF00;"/>
    <path d="" transform="translate(0,0)" style="fill: #FFFF00;"/>
    <path d="" transform="translate(0,0)" style="fill: #FFFF00;"/>
    <path d="" transform="translate(0,0)" style="fill: #FFFF00;"/>
    <path d="" transform="translate(0,0)" style="fill: #FFFF00;"/>
    <path d="" transform="translate(0,0)" style="fill: #FF8000;"/>
    <path d="" transform="translate(0,0)" style="fill: #FF8000;"/>
    <path d="" transform="translate(0,0)" style="fill: #FFFF00;"/>
    <path d="" transform="translate(0,0)" style="fill: #FF8000;"/>
    <path d="" transform="translate(0,0)" style="fill: #FF8000;"/>
    <path d="" transform="translate(0,0)" style="fill: #FFFF00;"/>
    <path d="" transform="translate(0,0)" style="fill: #FFFF00;"/>
    <path d="" transform="translate(0,0)" style="fill: #FFFF00;"/>
    <path d="" transform="translate(0,0)" style="fill: #FFFF00;"/>
    <path d="" transform="translate(0,0)" style="fill: #FF8000;"/>
    <path d="" transform="translate(0,0)" style="fill: #FFFF00;"/>
    <path d="" transform="translate(0,0)" style="fill: #FFFF00;"/>
    <path d="" transform="translate(0,0)" style="fill: #FFFF00;"/>
    <path d="" transform="translate(0,0)" style="fill: #FF8000;"/>
    <path d="" transform="translate(0,0)" style="fill: #FFFF00;"/>
    <path d="" transform="translate(0,0)" style="fill: #FFFF00;"/>
    <path d="" transform="translate(0,0)" style="fill: #FFAA00;"/>
    <path d="" transform="translate(0,0)" style="fill: #FFFF00;"/>
    <path d="" transform="translate(0,0)" style="fill: #FFFF00;"/>
    <path d="" transform="translate(0,0)" style="fill: #FFFF00;"/>
    <path d="" transform="translate(0,0)" style="fill: #FF8000;"/>
    <path d="" transform="translate(0,0)" style="fill: #FFFF00;"/>
    <path d="" transform="translate(0,0)" style="fill: #FFFF00;"/>
    <path d="" transform="translate(0,0)" style="fill: #FFFF00;"/>
    <path d="" transform="translate(0,0)" style="fill: #FFFF00;"/>
    <path d="" transform="translate(0,0)" style="fill: #FFFF00;"/>
    <path d="" transform="translate(0,0)" style="fill: #FFAA00;"/>
    <path d="" transform="translate(0,0)" style="fill: #FFFF00;"/>
    <path d="" transform="translate(0,0)" style="fill: #FFAA00;"/>
    <path d="" transform="translate(0,0)" style="fill: #FFFF00;"/>
    <path d="" transform="translate(0,0)" style="fill: #FFFF00;"/>
    <path d="" transform="translate(0,0)" style="fill: #FFBF00;"/>
    <path d="" transform="translate(0,0)" style="fill: #FFFF00;"/>
    <path d="" transform="translate(0,0)" style="fill: #FFFF00;"/>
    <path d="" transform="translate(0,0)" style="fill: #FFFF00;"/>
    <path d="" transform="translate(0,0)" style="fill: #FF8000;"/>
    <path d="" transform="translate(0,0)" style="fill: #FFFF00;"/>
    <path d="" transform="translate(0,0)" style="fill: #FFBF00;"/>
    <path d="" transform="translate(0,0)" style="fill: #FFFF00;"/>
    <path d="" transform="translate(0,0)" style="fill: #FF8000;"/>
    <path d="" transform="translate(0,0)" style="fill: #FFFF00;"/>
    <path d="" transform="translate(0,0)" style="fill: #FF8000;"/>
    <path d="" transform="translate(0,0)" style="fill: #FFFF00;"/>
    <path d="" transform="translate(0,0)" style="fill: #FFFF00;"/>
    <path d="" transform="translate(0,0)" style="fill: #FF8000;"/>
    <path d="" transform="translate(0,0)" style="fill: #FFFF00;"/>
    <path d="" transform="translate(0,0)" style="fill: #FFFF00;"/>
    <path d="" transform="translate(0,0)" style="fill: #FF8000;"/>
    <path d="" transform="translate(0,0)" style="fill: #FF8000;"/>
    <path d="" transform="translate(0,0)" style="fill: #FFFF00;"/>
    <path d="" transform="translate(0,0)" style="fill: #FFFF00;"/>
    <path d="" transform="translate(0,0)" style="fill: #FFFF00;"/>
    <path d="" transform="translate(0,0)" style="fill: #FFFF00;"/>
    <path d="" transform="translate(0,0)" style="fill: #FFFF00;"/>
    <path d="" transform="translate(0,0)" style="fill: #FFFF00;"/>
    <path d="" transform="translate(0,0)" style="fill: #FF8000;"/>
    <path d="" transform="translate(0,0)" style="fill: #FF8000;"/>
    <path d="" transform="translate(0,0)" style="fill: #FFAA00;"/>
    <path d="" transform="translate(0,0)" style="fill: #FFFF00;"/>
    <path d="" transform="translate(0,0)" style="fill: #FFFF00;"/>
    <path d="" transform="translate(0,0)" style="fill: #FFFF00;"/>
    <path d="" transform="translate(0,0)" style="fill: #FF8000;"/>
    <path d="" transform="translate(0,0)" style="fill: #FFFF00;"/>
    <path d="" transform="translate(0,0)" style="fill: #FF8000;"/>
    <path d="" transform="translate(0,0)" style="fill: #FFFF00;"/>
    <path d="" transform="translate(0,0)" style="fill: #FF8000;"/>
    <path d="" transform="translate(0,0)" style="fill: #FFFF00;"/>
    <path d="" transform="translate(0,0)" style="fill: #FFFF00;"/>
    <path d="" transform="translate(0,0)" style="fill: #FFFF00;"/>
    <path d="" transform="translate(0,0)" style="fill: #FFFF00;"/>
    <path d="" transform="translate(0,0)" style="fill: #FFFF00;"/>
    <path d="" transform="translate(0,0)" style="fill: #FFFF00;"/>
    <path d="" transform="translate(0,0)" style="fill: #FFFF00;"/>
    <path d="" transform="translate(0,0)" style="fill: #FFFF00;"/>
    <path d="" transform="translate(0,0)" style="fill: #FF8000;"/>
    <path d="" transform="translate(0,0)" style="fill: #FFFF00;"/>
    <path d="" transform="translate(0,0)" style="fill: #FF8000;"/>
    <path d="" transform="translate(0,0)" style="fill: #FFFF00;"/>
    <path d="" transform="translate(0,0)" style="fill: #FF8000;"/>
    <path d="" transform="translate(0,0)" style="fill: #FFFF00;"/>
    <path d="" transform="translate(0,0)" style="fill: #FFFF00;"/>
    <path d="" transform="translate(0,0)" style="fill: #FFFF00;"/>
    <path d="" transform="translate(0,0)" style="fill: #FF8000;"/>
    <path d="" transform="translate(0,0)" style="fill: #FF8000;"/>
    <path d="" transform="translate(0,0)" style="fill: #FFFF00;"/>
    <path d="" transform="translate(0,0)" style="fill: #FFFF00;"/>
    <path d="" transform="translate(0,0)" style="fill: #FFFF00;"/>
    <path d="" transform="translate(0,0)" style="fill: #FFFF00;"/>
    <path d="" transform="translate(0,0)" style="fill: #FF8000;"/>
    <path d="" transform="translate(0,0)" style="fill: #FFFF00;"/>
    <path d="" transform="translate(0,0)" style="fill: #FFFF00;"/>
    <path d="" transform="translate(0,0)" style="fill: #FFFF00;"/>
    <path d="" transform="translate(0,0)" style="fill: #FFFF00;"/>
    <path d="" transform="translate(0,0)" style="fill: #FFFF00;"/>
    <path d="" transform="translate(0,0)" style="fill: #FFFF00;"/>
    <path d="" transform="translate(0,0)" style="fill: #FFFF00;"/>
    <path d="" transform="translate(0,0)" style="fill: #FFFF00;"/>
    <path d="" transform="translate(0,0)" style="fill: #FFFF00;"/>
    <path d="" transform="translate(0,0)" style="fill: #FFFF00;"/>
    <path d="" transform="translate(0,0)" style="fill: #FFFF00;"/>
    <path d="" transform="translate(0,0)" style="fill: #FFFF00;"/>
    <path d="" transform="translate(0,0)" style="fill: #FFAA00;"/>
    <path d="" transform="translate(0,0)" style="fill: #FF8000;"/>
    <path d="" transform="translate(0,0)" style="fill: #FFFF00;"/>
    <path d="" transform="translate(0,0)" style="fill: #FFFF00;"/>
    <path d="" transform="translate(0,0)" style="fill: #FFFF00;"/>
    <path d="" transform="translate(0,0)" style="fill: #FFAA00;"/>
    <path d="" transform="translate(0,0)" style="fill: #000000;"/>
    <path d="" transform="translate(0,0)" style="fill: #000000;"/>
    <path d="" transform="translate(0,0)" style="fill: #000000;"/>
</svg>